<?xml version="1.0" encoding="UTF-8" standalone="no"?>
<!-- Created with Inkscape (http://www.inkscape.org/) -->

<svg
   xmlns:dc="http://purl.org/dc/elements/1.1/"
   xmlns:cc="http://creativecommons.org/ns#"
   xmlns:rdf="http://www.w3.org/1999/02/22-rdf-syntax-ns#"
   xmlns:svg="http://www.w3.org/2000/svg"
   xmlns="http://www.w3.org/2000/svg"
   xmlns:sodipodi="http://sodipodi.sourceforge.net/DTD/sodipodi-0.dtd"
   xmlns:inkscape="http://www.inkscape.org/namespaces/inkscape"
   width="744.09448819"
   height="1052.3622047"
   id="svg2"
   version="1.1"
   inkscape:version="0.48.5 r10040"
   sodipodi:docname="logo with text.svg">
  <defs
     id="defs4">
    <marker
       inkscape:stockid="DotL"
       orient="auto"
       refY="0.0"
       refX="0.0"
       id="DotL"
       style="overflow:visible">
      <path
         id="path3986"
         d="M -2.5,-1.0 C -2.5,1.7600000 -4.7400000,4.0 -7.5,4.0 C -10.260000,4.0 -12.5,1.7600000 -12.5,-1.0 C -12.5,-3.7600000 -10.260000,-6.0 -7.5,-6.0 C -4.7400000,-6.0 -2.5,-3.7600000 -2.5,-1.0 z "
         style="fill-rule:evenodd;stroke:#000000;stroke-width:1.0pt"
         transform="scale(0.8) translate(7.4, 1)" />
    </marker>
    <marker
       inkscape:stockid="DotL"
       orient="auto"
       refY="0"
       refX="0"
       id="DotL-5"
       style="overflow:visible">
      <path
         inkscape:connector-curvature="0"
         id="path3986-5"
         d="m -2.5,-1 c 0,2.76 -2.24,5 -5,5 -2.76,0 -5,-2.24 -5,-5 0,-2.76 2.24,-5 5,-5 2.76,0 5,2.24 5,5 z"
         style="fill-rule:evenodd;stroke:#000000;stroke-width:1pt"
         transform="matrix(0.8,0,0,0.8,5.92,0.8)" />
    </marker>
    <marker
       inkscape:stockid="DotL"
       orient="auto"
       refY="0"
       refX="0"
       id="DotL-2"
       style="overflow:visible">
      <path
         inkscape:connector-curvature="0"
         id="path3986-7"
         d="m -2.5,-1 c 0,2.76 -2.24,5 -5,5 -2.76,0 -5,-2.24 -5,-5 0,-2.76 2.24,-5 5,-5 2.76,0 5,2.24 5,5 z"
         style="fill-rule:evenodd;stroke:#000000;stroke-width:1pt"
         transform="matrix(0.8,0,0,0.8,5.92,0.8)" />
    </marker>
  </defs>
  <sodipodi:namedview
     id="base"
     pagecolor="#ffffff"
     bordercolor="#666666"
     borderopacity="1.0"
     inkscape:pageopacity="0.0"
     inkscape:pageshadow="2"
     inkscape:zoom="0.49497475"
     inkscape:cx="544.80363"
     inkscape:cy="461.27935"
     inkscape:document-units="px"
     inkscape:current-layer="layer1"
     showgrid="true"
     gridtolerance="10"
     inkscape:window-width="1920"
     inkscape:window-height="1056"
     inkscape:window-x="-4"
     inkscape:window-y="-4"
     inkscape:window-maximized="1">
    <inkscape:grid
       type="axonomgrid"
       id="grid2985"
       units="cm"
       empspacing="5"
       visible="true"
       enabled="true"
       snapvisiblegridlinesonly="true"
       spacingy="1cm" />
  </sodipodi:namedview>
  <metadata
     id="metadata7">
    <rdf:RDF>
      <cc:Work
         rdf:about="">
        <dc:format>image/svg+xml</dc:format>
        <dc:type
           rdf:resource="http://purl.org/dc/dcmitype/StillImage" />
        <dc:title />
      </cc:Work>
    </rdf:RDF>
  </metadata>
  <g
     inkscape:label="Layer 1"
     inkscape:groupmode="layer"
     id="layer1">
    <g
       id="g3918">
      <path
         inkscape:connector-curvature="0"
         id="path3151"
         d="M 520.27966,399.36383 C 213.42027,222.19847 59.990586,310.78115 59.990586,310.78115"
         style="fill:none;stroke:#000000;stroke-width:4;stroke-linecap:butt;stroke-linejoin:miter;stroke-miterlimit:4;stroke-opacity:1;stroke-dasharray:none;stroke-dashoffset:0;marker-start:none;marker-end:url(#DotL)" />
      <path
         inkscape:connector-curvature="0"
         id="path4911-4"
         d="M 673.70936,665.11186 C 827.13905,576.52918 520.27965,399.36383 520.27965,399.36383"
         style="fill:none;stroke:#000000;stroke-width:4;stroke-linecap:butt;stroke-linejoin:miter;stroke-miterlimit:4;stroke-opacity:1;stroke-dasharray:none;stroke-dashoffset:0" />
      <path
         inkscape:connector-curvature="0"
         id="path4911-1"
         d="m 673.70938,310.78116 c 153.4297,88.58268 -153.4297,265.74803 -153.4297,265.74803"
         style="fill:none;stroke:#000000;stroke-width:4;stroke-linecap:butt;stroke-linejoin:miter;stroke-miterlimit:4;stroke-opacity:1;stroke-dasharray:none;stroke-dashoffset:0" />
      <path
         inkscape:connector-curvature="0"
         id="path4913-1"
         d="M 520.27968,576.52919 C 213.42029,753.69454 59.990606,665.11187 59.990606,665.11187"
         style="fill:none;stroke:#000000;stroke-width:4;stroke-linecap:butt;stroke-linejoin:miter;stroke-miterlimit:4;stroke-opacity:1;stroke-dasharray:none;stroke-dashoffset:0" />
      <path
         sodipodi:nodetypes="cc"
         inkscape:connector-curvature="0"
         id="path5041-2"
         d="m 366.84996,169.04887 c 122.74376,0 122.74376,354.33071 122.74376,354.33071"
         style="fill:none;stroke:#000000;stroke-width:4;stroke-linecap:butt;stroke-linejoin:miter;stroke-miterlimit:4;stroke-opacity:1;stroke-dasharray:none;stroke-dashoffset:0" />
      <path
         sodipodi:nodetypes="cc"
         inkscape:connector-curvature="0"
         id="path5041-2-2"
         d="m 366.84996,877.71038 c 122.74376,0 122.74376,-354.3308 122.74376,-354.3308"
         style="fill:none;stroke:#000000;stroke-width:4;stroke-linecap:butt;stroke-linejoin:miter;stroke-miterlimit:4;stroke-opacity:1;stroke-dasharray:none;stroke-dashoffset:0;marker-start:url(#DotL-2)" />
      <path
         inkscape:connector-curvature="0"
         id="path5355"
         d="m 184.88059,534.66813 c -16.76822,-48.4053 -31.48238,-91.07788 -32.69813,-94.82807 -15.62655,-48.20276 -8.59817,-79.97212 22.23139,-100.4894 23.2638,-15.48221 59.60489,-24.96294 111.23745,-29.01983 24.07571,-1.89169 30.93831,-2.06314 82.57997,-2.06314 51.59674,0 59.06355,0.18606 82.32743,2.0515 57.63546,4.62155 96.22838,15.78678 118.29318,34.22314 21.0007,17.54725 27.5442,41.53749 20.6103,75.56279 -2.0022,9.82498 -5.6217,20.94369 -25.4969,78.32381 -11.0173,31.8071 -25.18774,72.7713 -31.48992,91.0313 l -11.45852,33.2002 -29.89374,0.01 -29.89374,0.01 1.42487,-4.1669 c 0.78367,-2.2918 14.50155,-41.8961 30.48416,-88.0096 15.98262,-46.1134 29.73373,-86.11547 30.55803,-88.89339 2.33261,-7.861 3.3147,-14.32211 3.26279,-21.46574 -0.10486,-14.43159 -4.46271,-24.6936 -14.59714,-34.37387 -17.44673,-16.66486 -48.42236,-25.36538 -100.69424,-28.28329 -12.8695,-0.71839 -74.15787,-0.70993 -87.12566,0.012 -50.40451,2.8062 -80.70899,10.97957 -99.174,26.74806 -6.71438,5.73385 -12.68342,15.41882 -14.80882,24.02778 -1.4656,5.93648 -1.57875,17.41454 -0.23836,24.18127 1.45814,7.36123 3.06083,12.14104 34.38597,102.55168 16.54686,47.7576 30.0852,87.021 30.0852,87.2519 0,0.231 -13.37038,0.42 -29.71195,0.42 l -29.71196,0 -30.48766,-88.0095 0,0 z"
         style="fill:#ff0000;fill-opacity:1;stroke:#000000;stroke-width:4;stroke-linecap:round;stroke-linejoin:round;stroke-miterlimit:4;stroke-opacity:1;stroke-dasharray:none;stroke-dashoffset:0" />
      <path
         inkscape:connector-curvature="0"
         id="path4911"
         d="M 59.990586,310.78115 C -93.439107,399.36383 213.42027,576.52918 213.42027,576.52918"
         style="fill:none;stroke:#000000;stroke-width:4;stroke-linecap:butt;stroke-linejoin:miter;stroke-miterlimit:4;stroke-opacity:1;stroke-dasharray:none;stroke-dashoffset:0" />
      <path
         inkscape:connector-curvature="0"
         id="path3151-7"
         d="M 213.42029,399.36384 C 520.27968,222.19848 673.70938,310.78116 673.70938,310.78116"
         style="fill:none;stroke:#000000;stroke-width:4;stroke-linecap:butt;stroke-linejoin:miter;stroke-miterlimit:4;stroke-opacity:1;stroke-dasharray:none;stroke-dashoffset:0;marker-start:none;marker-end:url(#DotL)" />
      <path
         inkscape:connector-curvature="0"
         id="path4911-4-5"
         d="M 59.990606,665.11187 C -93.439077,576.52919 213.4203,399.36384 213.4203,399.36384"
         style="fill:none;stroke:#000000;stroke-width:4;stroke-linecap:butt;stroke-linejoin:miter;stroke-miterlimit:4;stroke-opacity:1;stroke-dasharray:none;stroke-dashoffset:0" />
      <path
         sodipodi:nodetypes="cc"
         inkscape:connector-curvature="0"
         id="path5041"
         d="m 366.84996,169.04887 c -122.74376,0 -122.74376,354.33071 -122.74376,354.33071"
         style="fill:none;stroke:#000000;stroke-width:4;stroke-linecap:butt;stroke-linejoin:miter;stroke-miterlimit:4;stroke-opacity:1;stroke-dasharray:none;stroke-dashoffset:0" />
      <path
         inkscape:connector-curvature="0"
         id="path5361"
         d="m 435.19125,696.9032 c 2.29019,-6.58036 9.09011,-26.1875 15.11094,-43.57143 l 10.94697,-31.60714 29.50761,0 c 16.22919,0 29.5145,0.24107 29.52291,0.53571 0.008,0.29464 -6.66123,19.89645 -14.82143,43.55956 l -14.83673,43.02385 -29.79711,0.0119 -29.79712,0.0119 4.16396,-11.96428 z"
         style="fill:#ffffff;fill-opacity:1;stroke:#000000;stroke-width:4;stroke-linecap:round;stroke-linejoin:round;stroke-miterlimit:4;stroke-opacity:1;stroke-dasharray:none;stroke-dashoffset:0" />
      <path
         inkscape:connector-curvature="0"
         id="path4913"
         d="m 213.42027,576.52918 c 306.85939,177.16535 460.28909,88.58268 460.28909,88.58268"
         style="fill:none;stroke:#000000;stroke-width:4;stroke-linecap:butt;stroke-linejoin:miter;stroke-miterlimit:4;stroke-opacity:1;stroke-dasharray:none;stroke-dashoffset:0" />
      <path
         inkscape:connector-curvature="0"
         id="path5359"
         d="m 246.22073,707.47949 c 0,-0.13783 -1.62189,-4.8789 -3.60421,-10.53571 -1.98231,-5.6568 -4.40901,-12.69581 -5.39265,-15.64224 -0.98365,-2.94643 -1.98173,-5.83929 -2.21796,-6.42857 -0.23624,-0.58929 -0.51595,-1.39286 -0.62158,-1.78572 -0.10563,-0.39286 -1.70319,-5.05357 -3.55013,-10.35714 -1.84694,-5.30357 -4.73843,-13.66072 -6.42553,-18.57143 -1.6871,-4.91071 -4.05885,-11.74047 -5.27055,-15.17723 -1.21171,-3.43676 -2.2031,-6.40998 -2.2031,-6.60714 0,-0.19717 13.01786,-0.35849 28.92857,-0.35849 15.91071,0 28.92857,0.11003 28.92857,0.24451 0,0.13449 1.47473,4.39341 3.27719,9.46429 1.80245,5.07088 4.01836,11.46977 4.92424,14.21977 0.90589,2.75 3.63383,10.625 6.06209,17.5 2.42827,6.875 5.01225,14.26786 5.74217,16.42858 0.72993,2.16071 3.11655,9.13462 5.30359,15.49757 2.18704,6.36295 3.97644,11.74688 3.97644,11.96428 0,0.21741 -13.01786,0.39529 -28.92858,0.39529 -15.91071,0 -28.92857,-0.11278 -28.92857,-0.25062 z"
         style="fill:#ffffff;fill-opacity:1;stroke:#000000;stroke-width:4;stroke-linecap:round;stroke-linejoin:round;stroke-miterlimit:4;stroke-opacity:1;stroke-dasharray:none;stroke-dashoffset:0" />
      <path
         sodipodi:nodetypes="cc"
         inkscape:connector-curvature="0"
         id="path5041-2-2-1"
         d="m 366.84996,877.71038 c -122.74376,0 -122.74376,-354.3308 -122.74376,-354.3308"
         style="fill:none;stroke:#000000;stroke-width:4;stroke-linecap:butt;stroke-linejoin:miter;stroke-miterlimit:4;stroke-opacity:1;stroke-dasharray:none;stroke-dashoffset:0" />
    </g>
    <g
       style="font-size:100px;font-style:normal;font-variant:normal;font-weight:normal;font-stretch:normal;text-align:start;line-height:125%;letter-spacing:0px;word-spacing:0px;writing-mode:lr-tb;text-anchor:start;fill:#000000;fill-opacity:1;stroke:none;font-family:Smudger LET;-inkscape-font-specification:Smudger LET"
       id="text3853">
      <path
         d="m 212.5287,69.352875 1.26953,-0.683594 1.26953,-0.292969 2.09961,0.292969 2.68555,1.806641 2.00195,2.734375 0.53711,0.830078 0.29297,0.439453 0.43945,1.269531 0.6836,1.806641 0.29297,2.392578 0,2.001953 0.14648,2.832031 -0.53711,4.101563 0,1.80664 -0.29297,0.439454 -0.14648,1.416015 -0.29297,1.953125 -0.97656,4.833985 -0.97656,3.955076 -0.63477,2.29492 -0.92773,2.63672 -0.29297,1.12305 0,1.5625 -0.29297,1.5625 -0.43946,0.97656 0,1.12305 -0.39062,0.58594 0.14648,1.12304 -0.43945,1.12305 0.29297,1.26953 -0.43945,0.43945 -0.14649,2.83204 -0.53711,2.39257 0,0.97657 0.0977,0.58593 -0.39063,0.97657 -0.14648,2.24609 -0.43945,2.58789 -0.53711,2.09961 0,0.29297 0.24414,0.53711 -0.24414,0.43945 0.0977,1.5625 -0.24414,1.5625 0.24414,3.51563 0,1.70898 -0.24414,0.29297 -0.29297,1.85547 -0.58593,1.2207 -0.24414,0.43945 0.83007,0.39063 -0.29296,1.26953 0.29296,1.31836 0,0.68359 -0.43945,0.58594 -0.3418,1.17188 0.19532,0.78125 0.29297,0.97656 0,1.31836 0,0.39062 -0.6836,0.87891 0.39063,0.0977 0,0.29296 -0.53711,0 -0.3418,0.78125 0.19531,2.34375 -0.43945,0.6836 0.0977,1.2207 -0.73243,0.78125 -0.29296,-1.26953 -0.14649,-0.19531 -0.68359,-2.88086 -0.3418,-0.73242 0,-0.58594 -0.43945,-2.39258 -0.43946,-2.00195 0.14649,-0.53711 -0.24414,-0.97656 -0.29297,-2.00196 -0.29297,-0.43945 0,-0.53711 -0.48828,-3.4668 -0.63477,-5.46875 -0.97656,-10.83984 0,-1.02539 -0.29297,-3.22266 0,-3.51562 -0.43945,-1.5625 0.14648,-2.29492 0,-2.68555 0,-1.95313 0,-2.00195 -0.14648,-0.83008 0,-0.43945 0.14648,-1.95313 0.14649,-1.85546 0,-2.53907 0.29297,-0.97656 0,-1.70898 0.24414,-0.976566 -0.0977,-1.708985 0.0977,-2.539062 0.14648,-1.953125 -0.53711,0.390625 -0.43945,1.269531 -0.43945,1.123047 -0.24414,0.585937 0,0.976563 -0.29297,0.585937 -0.43946,0.146485 -0.68359,1.660156 -0.29297,2.001957 -0.43945,0.53711 -0.53711,0 -0.29297,1.02539 0,1.26953 -0.58594,0.29297 0,0.39062 -0.83008,2.39258 -0.83007,2.83203 -0.58594,0.58594 -0.53711,1.85547 -0.78125,2.24609 -1.70899,4.93164 -0.78125,2.00195 -2.00195,2.78321 -2.05078,3.125 -1.46484,1.12304 -1.41602,1.12305 -0.43945,-0.24414 -0.97656,0.39063 -1.41602,0 -2.24609,-0.24415 -2.97852,-0.8789 -1.5625,-0.97656 -1.95312,-1.85547 -1.12305,-1.41602 -1.61133,-4.39453 -0.78125,-7.03125 -0.0977,-4.24805 -0.73242,1.5625 -0.53711,1.46485 -0.29297,1.5625 -0.24414,0.68359 -0.39062,1.75781 -0.24414,2.78321 -0.83008,4.6875 -0.3418,1.46484 -0.68359,2.39258 -1.02539,3.125 0,0.73242 -0.53711,1.51367 -0.87891,2.00196 -0.24414,0.58593 -0.29297,1.80664 -0.83007,2.2461 0.14648,0.73242 -0.29297,1.26953 0,0.53711 -0.58594,0.87891 -0.29297,1.95312 -0.39062,0.58594 0,1.5625 -0.14648,1.66015 -0.58594,0.87891 0.14648,0.53711 -0.29297,0.58594 -0.68359,0.83008 -0.58594,0.14648 -0.29297,0.73242 -0.39062,0.29297 -1.12305,0 -1.17187,0.39063 -0.24414,-0.53711 -0.58594,0.24414 -0.97656,-0.6836 -0.97657,-1.12304 -1.02539,-1.41602 -0.0976,-1.12305 0.39062,-1.41601 0,-3.41797 0.73242,-4.93164 0,-2.39258 0.0977,-2.00195 0.14648,-1.26953 0.29297,-8.74024 0.58594,-8.88672 0.83008,-5.66406 0.58594,-2.97851 1.41601,-7.08008 0.97656,-3.369143 0.43946,-2.001953 1.95312,-5.908204 0.73242,-1.269531 0,-0.292969 1.41602,-1.5625 0.53711,-0.439453 0.58594,-1.513672 0.83007,-1.02539 0.29297,-0.830078 1.95313,-0.585938 1.70898,-0.09766 0.97657,0.244141 1.85546,0.292968 2.53907,0.732422 0.97656,0.53711 1.5625,0.585937 0.29297,0.390625 2.39258,1.5625 1.41601,2.001953 1.12305,2.929688 0.43945,1.855468 0.43945,1.269532 0,6.640623 -0.14648,4.93164 0,5.66406 0,1.0254 0.24414,1.95312 0.29297,2.39258 0.97656,-1.5625 0.43946,-0.24414 2.0996,-4.83399 0.87891,-2.09961 0.53711,-0.73242 0.58594,-1.41601 0.97656,-2.09961 3.95508,-8.349612 1.02539,-1.660156 1.41601,-3.417969 1.26954,-2.539063 0.53711,-0.976562 0.43945,-1.123047 0.68359,-1.416016 1.26953,-2.294921 1.17188,-2.441407 1.95312,-3.173828 0.6836,-1.171875 0.43945,-0.976562 0.87891,-1.123047 0.53711,-0.976563 0.73242,-1.02539 1.26953,-0.830078 z"
         style=""
         id="path3084" />
      <path
         d="m 247.34315,97.673187 -0.73242,2.783203 -0.58593,1.70898 -0.43946,2.83204 -0.29297,0.43945 -0.24414,1.66016 -0.58593,1.85546 -0.53711,2.53907 -0.43946,2.29492 0,1.66015 1.12305,0.29297 3.95508,0.29297 0.63476,-0.0488 -0.0488,-3.46679 -0.14649,-2.34375 0.19531,-2.29492 0,-3.07618 -0.24414,-4.54101 0,-3.857424 -0.29297,-3.222656 z m 1.80665,-22.998047 1.12304,-0.390625 2.68555,0.146485 1.70898,0.24414 0.24414,0.292969 1.02539,0.146485 2.2461,1.123046 3.125,3.710938 1.12305,1.757812 0,0.390625 -0.14649,1.123047 0.39063,1.171875 0.14648,3.955078 -0.14648,1.416016 0,1.416016 0,0.24414 -0.24414,2.001953 -0.14649,2.832032 -0.14648,2.539062 -0.58594,4.199216 -0.14649,1.31836 -0.68359,2.92969 -0.29297,0.73242 -0.14648,1.80664 -0.39063,1.85547 0,1.26953 -0.29297,0.29297 0,0.97656 -0.14648,0.43946 0.29297,0.39062 -0.87891,1.5625 0,0.43945 0.87891,0.97657 0,0.8789 0.39062,0 -0.39062,1.80664 -0.29297,0.73243 0.29297,1.26953 -0.43945,0.39062 0.14648,0.87891 0,1.66015 -0.58594,0.29297 -0.29297,0.14649 0.29297,1.70898 0.29297,0.43946 -0.14648,1.26953 0.29297,0.97656 -0.29297,0.29297 0.14648,0.83008 -0.14648,1.26953 0.97656,5.81054 0.29297,0.97657 -0.14649,0.58593 0.58594,1.80664 -0.14648,1.41602 0.14648,2.83203 0.29297,0.73242 -0.29297,0.39063 0.14649,0.73242 0.29296,1.41602 0.39063,0.53711 -0.14649,0.97656 0.43946,2.29492 0.43945,1.66016 0,1.02539 0.53711,2.09961 -0.14648,1.70898 -1.61133,-2.7832 -1.46485,-3.02735 0,-0.29297 -0.58593,-1.26953 -1.70899,-3.36914 -0.53711,-1.70898 -1.26953,-3.22266 -0.14648,-1.26953 -0.83008,-1.85547 -0.73242,-1.5625 -0.6836,-3.22265 -0.73242,-1.70899 -0.53711,-3.125 -0.43945,-1.12305 -0.73242,-2.83203 -1.12305,0.43946 -2.39258,0.29297 -0.29297,0.24414 -3.07617,0.14648 -2.4414,0 -1.12305,0.29297 -0.83008,2.00195 0.14648,1.51367 -0.58593,2.00196 -0.39063,1.5625 -0.14648,0.83008 -0.29297,0.43945 -0.73242,2.09961 -0.0977,0.97656 -0.29297,0.58594 -0.14648,1.41601 -0.43946,1.5625 -0.83007,1.70899 -0.14649,0.83008 -0.83008,1.70898 -0.58593,1.26953 -0.73243,0.83008 -0.97656,0.29297 -0.68359,0.53711 -1.41602,0.29297 -0.83008,0 -1.02539,-0.53711 -0.97656,-1.26953 -0.29297,-1.85547 -0.14648,-0.43946 0,-3.07617 0.29297,-2.00195 0.97656,-5.76172 0.58594,-2.29492 1.12304,-5.3711 0.58594,-2.0996 0.39063,-0.73243 0,-0.97656 -1.26953,-2.09961 -0.14649,-0.8789 0.58594,-0.39063 -0.29297,-0.58594 0.29297,-1.12304 0.14648,-0.83008 0,-0.14649 1.5625,-0.43945 1.12305,-0.58594 0.68359,-2.09961 0.29297,-1.12304 1.70899,-5.22461 0.53711,-2.14844 0.29296,-0.14648 0,-0.53711 2.00196,-5.3711 0.68359,-1.708982 1.12305,-3.369141 0.8789,-2.832031 1.5625,-4.785156 0.24415,-0.585938 0.29296,-0.830078 1.85547,-4.980469 0.53711,-0.878906 1.31836,-3.417969 1.26953,-2.539062 z"
         style=""
         id="path3086" />
      <path
         d="m 305.00917,168.81577 0,1.70898 -1.26953,2.83203 -0.97656,-6.34766 -0.73243,-2.4414 -0.97656,-6.5918 -0.29297,-3.71094 -0.14648,-0.68359 -0.29297,-5.81055 0.14648,-0.58593 0.29297,-5.22461 0,-1.95313 0,-1.70898 -0.43945,-0.53711 -0.39062,0.53711 -0.43946,-0.14649 -1.41601,0.58594 -1.5625,0.29297 -0.83008,0.83008 -0.97656,0.29297 -0.58594,-0.29297 -1.70899,0.73242 -2.09961,0.0977 -1.5625,0.14648 -2.39257,-0.14648 -3.27149,-0.53711 -2.83203,-0.97657 -2.24609,-1.02539 -1.26953,-0.68359 -3.125,-2.39258 -1.26954,-1.26953 -0.97656,-1.5625 -0.83008,-1.26953 -1.12304,-2.97852 -1.02539,-2.83203 -0.24414,-1.5625 0.24414,-0.97656 0,-2.83203 0.58593,-1.95313 1.70899,-3.85742 1.26953,-2.7832 0.97656,-1.41602 1.26953,-2.29492 0.43946,-0.39062 2.53906,-3.8086 0.68359,-1.02539 0.58594,-0.68359 1.12305,-1.41602 0.43945,-0.976561 2.24609,-2.685547 1.5625,-1.855468 1.5625,-2.09961 2.09961,-2.441406 0.29297,-0.537109 0.6836,-0.439454 2.83203,-2.978515 1.5625,-1.513672 1.70898,-1.269531 2.2461,-1.708985 0.97656,-0.292968 1.41601,-0.585938 2.2461,-1.123047 1.70898,-0.537109 2.39258,-0.292969 0.58594,0.146484 0.58593,0.683594 0.6836,0.585938 1.70898,2.099609 1.95313,1.855469 1.02539,0.488281 1.26953,0.195313 0.92773,2.294921 -0.14648,2.197266 -0.14648,2.587891 -1.12305,1.953125 -0.97656,1.123047 -0.83008,0.292968 -0.87891,1.269532 -0.83008,0.878906 -0.29297,0.390625 -2.24609,0.732422 -2.24609,0.24414 -1.41602,0.732422 -1.46484,0.585936 -1.26953,0.97656 -0.19532,0.83008 -0.92773,0.6836 -2.09961,2.29492 -3.36914,3.71094 -4.24805,6.15234 -2.09961,3.22266 -0.8789,1.70898 -0.39063,0.43945 -0.29297,1.41602 0.0488,3.4668 1.07422,1.46484 1.75781,1.17187 1.85547,0.6836 1.70899,0.24414 0.92773,-0.48828 2.24609,-0.58594 2.2461,-0.97656 2.97851,-1.85547 2.83203,-2.09961 0.53711,-0.83008 0.43946,-1.70898 0.8789,-2.68555 0.6836,-1.41602 0.58593,-1.41601 0.24415,-1.41602 0.14648,-0.43945 0.73242,-0.39063 0,-1.41601 1.26953,-0.73242 0.97657,-0.6836 0.73242,-0.97656 0.97656,0 1.41602,0.53711 0.97656,-0.14648 1.41601,1.26953 1.95313,0.73242 0.92773,0.68359 1.36719,2.14844 1.07422,2.14844 0.29297,3.27148 -0.43946,2.53906 -0.68359,1.26954 -0.97656,2.7832 -0.58594,2.44141 -0.73242,1.66015 -0.97656,2.53906 -1.5625,3.56446 0,0.29297 -0.6836,2.09961 -0.97656,2.39257 -0.73242,1.41602 -0.6836,1.85547 -0.19531,1.17187 -0.53711,0.78125 -0.0976,2.78321 -0.43946,0.29296 0,0.58594 -0.39062,1.95313 -0.43945,1.12304 -0.29297,0 -0.29297,0.73243 -1.26953,2.68554 -0.63477,2.78321 -0.19531,2.29492 -0.43945,1.85547 -0.14649,1.26953 -0.24414,0.53711 0,1.41601 -1.02539,0.97657 0,1.31835 -0.24414,0.24415 z"
         style=""
         id="path3088" />
      <path
         d="m 386.55214,88.249359 -0.24414,3.613281 -0.43945,2.148438 0.58593,0.830078 0.24414,3.417969 -0.24414,2.685545 0,1.51367 -0.29297,1.26953 0.43946,1.5625 -0.53711,5.76172 -0.0977,1.75782 -0.43945,5.95703 -0.0977,2.4414 -0.58594,1.70899 -0.14648,1.85547 -0.43945,2.19726 -0.6836,2.39258 -0.14648,1.12305 -1.02539,2.53906 -0.6836,2.24609 -0.68359,1.70899 -0.58594,1.5625 0,0.29297 -0.83007,0.68359 -0.53711,2.83203 -0.78125,1.61133 -1.02539,1.31836 -1.0254,1.02539 -0.5371,0.83008 -2.2461,0.73242 -1.5625,-0.43945 -1.61133,-0.78125 -1.5625,-1.07422 -1.75781,-2.00196 -2.39258,-2.53906 -2.39258,-2.58789 -1.12304,-1.26953 -2.83203,-2.68555 -3.41797,-4.3457 -0.83008,-1.26953 -0.83008,-0.73242 -3.41797,-5.51758 -2.09961,-3.07617 -2.29492,-2.97852 -0.97656,3.36914 -0.53711,1.70899 -0.14648,1.12304 -1.12305,3.27149 -1.12305,3.41797 -1.12305,2.7832 0.0977,0.58594 -0.68359,1.12304 -0.29297,1.95313 -0.43945,2.53906 -0.43946,2.44141 -0.97656,2.09961 -0.14648,1.26953 -0.29297,0.29297 -0.24414,1.41601 -0.97657,-0.29297 -0.8789,2.2461 -0.53711,2.14844 -0.73242,1.26953 -1.70899,0.83007 -0.39062,0 -0.58594,-0.43945 -0.97656,0 -0.73243,-0.0977 -0.5371,-0.87891 -1.5625,-1.12305 -0.29297,-0.83008 0.43945,-2.14843 -0.14648,-1.5625 0.14648,-4.63868 0.29297,-2.68554 0.14648,-2.09961 0.6836,-7.08008 0.14648,-2.00195 0.29297,-1.66016 0.68359,-4.10156 0.87891,-6.78711 2.39258,-13.28125 0.39062,-1.269532 0.43946,-1.708984 0.97656,-4.541016 1.02539,-2.929688 0.53711,-1.269531 0.73242,-0.878906 0.0977,-0.683594 0.73242,-0.439453 0.83008,-0.439453 1.5625,-0.244141 3.41797,0.830078 1.26953,1.269532 0.14648,0.439453 1.41602,1.513672 0.97656,1.318359 1.12305,3.076172 1.17187,1.464844 0.68359,2.392578 1.75782,3.07617 2.39258,3.41797 1.17187,2.05078 1.17188,1.46485 0.97656,1.46484 0.63476,1.07422 1.07422,1.70898 0.83008,1.66016 0.14648,0.43945 0.6836,1.70899 0.8789,2.39257 0.97657,1.70899 1.12304,1.26953 1.9043,4.6875 0.58594,0.83008 0.97656,1.41601 0.87891,1.85547 0.19531,-2.09961 0,-1.5625 0.53711,-2.05078 0.29297,-2.34375 0.39062,-1.12305 0.14649,-1.5625 0.48828,-2.39257 1.51367,-7.76368 0.53711,-5.17578 0.63477,-3.22265 0.68359,-2.636721 0.78125,-5.761719 0.53711,-2.88086 0,-1.757812 0.29297,-1.855469 0.39062,-2.441406 0.78125,-3.466797 0.53711,-2.099609 0.83008,-2.392578 1.5625,-4.150391 1.26953,-2.539063 0.92774,-2.050781 0.97656,-1.80664 1.07422,-1.855469 1.07422,-2.587891 0.97656,-0.146484 0.78125,0.585937 0.14648,1.074219 -0.29297,1.708984 -0.63476,3.125 0,0.292969 -0.29297,0.439453 0.83008,0.53711 -0.14649,1.367187 0.14649,1.464844 -0.14649,2.246094 0.14649,2.001953 0.24414,3.027344 0.0977,2.197265 -0.14648,3.027344 z"
         style=""
         id="path3090" />
      <path
         d="m 410.77089,79.167328 2.83203,-0.292969 1.07422,0.292969 0.39062,0 1.07422,0.09766 1.85547,0 1.9043,-0.24414 2.7832,-0.146485 4.19922,0 2.24609,0.390625 2.58789,0 5.07813,0.292969 2.14844,0.244141 8.34961,0.830078 4.29687,0.390625 2.2461,0.390625 0.39062,0 0.14648,0.683593 -0.14648,0.830079 -1.70898,0.390625 -0.92774,0.146484 -0.53711,0.244141 -2.29492,-0.146485 -0.68359,0.292969 -1.85547,-0.146484 -0.43946,0.292968 -0.5371,-0.292968 -0.24415,0.537109 -0.39062,0.537109 0,0.683594 -1.36719,0.390625 -0.53711,-0.244141 -0.39062,0.390625 -0.14649,0 -1.46484,0.390625 -1.36719,1.074219 -0.53711,-0.24414 -0.24414,0.390625 -0.53711,-0.146485 -0.39062,0.390625 -2.83203,0.439453 -0.39063,-0.146484 -1.2207,0.537109 0,0.244141 -1.85547,0.439453 -1.07422,0.78125 -0.97656,0.390625 -0.63477,0.537109 -1.90429,0.683594 -1.75782,0.390625 -0.78125,0.146485 -0.39062,0.390625 -2.14844,0.146484 -1.51367,0.390625 -1.85547,0.683594 -2.00195,0.683593 -0.29297,0.53711 -0.6836,0.24414 -1.85546,4.296875 -0.83008,2.97852 -0.78125,1.31836 -0.14649,0.83007 -0.24414,0.92774 0.39063,0.14648 3.22265,-0.53711 5.22461,-0.14648 5.22461,0.24414 2.44141,0.29297 0.78125,0.24414 1.07422,0.14648 0.53711,0.29297 0.39062,0.0977 0,0.29297 -0.63476,1.31836 -2.05078,1.36718 -1.07422,0.6836 -0.48828,-0.14649 -0.43946,0.6836 -2.83203,0.63476 -3.32031,1.07422 -1.9043,0.63477 -5.61523,0.8789 -1.46485,0.0977 -1.75781,0.14648 -0.92773,4.44336 -0.29297,1.07422 -0.6836,3.85742 -0.39062,0.6836 0,4.44336 0.14648,0.92773 0,1.07422 0.39063,1.36719 1.07422,0.63476 1.61133,0.14649 2.53906,0 6.20117,-0.78125 2.00195,-0.53711 5.66407,-0.83008 3.32031,-0.92773 3.22265,-0.6836 4.05274,-1.2207 0.0976,0.58594 -1.5625,2.00195 0,0.24414 -1.51367,1.9043 -2.53906,2.14843 -1.75781,1.31836 -0.6836,0.39063 -0.24414,0.83008 -0.92773,0.39062 -1.75781,0.83008 -0.53711,0.53711 -0.53711,0 0,0.24414 -0.92774,0.83008 -0.68359,0.53711 -0.39063,-0.14649 -0.83007,0.53711 -0.53711,0.14649 0,0.24414 -1.07422,0.29297 -1.85547,0.78125 -0.53711,0.29296 -0.92773,0 -0.29297,0.24415 -4.15039,0.39062 -2.44141,-0.0977 -1.61133,-0.14648 -5.37109,-1.36719 -1.70899,-0.92773 -1.75781,-1.07422 -0.14648,-0.39063 -0.92774,-0.92773 -0.68359,-0.83008 -0.53711,-1.31836 -1.07422,-1.75781 -0.53711,-1.46484 -0.24414,-0.29297 -0.53711,-3.07617 0,-0.6836 -0.29297,-1.75781 -0.0976,-3.32031 0,-1.36719 0.39062,-1.07422 -0.14648,-0.39062 0,-2.00196 0.39062,-1.61133 0.14649,-1.2207 0.39062,-2.83203 1.07422,-4.54102 0.14648,-0.92773 0.6836,-2.44141 0.24414,-1.07422 0,-0.39062 0.83008,-1.9043 0.0976,-0.92773 0.14649,-1.07422 1.07422,-3.076172 0.83007,-2.685547 0.24415,-0.146484 0.5371,-2.392578 -0.78125,-0.53711 -1.61132,-1.367187 -0.97657,-1.074219 -0.39062,-0.634766 1.2207,-0.585937 0,-0.244141 0.6836,-0.390625 -0.29297,-0.537109 0.39062,-0.830078 0,-0.78125 1.75781,-1.074219 0.29297,0 0.92774,-0.683594 1.46484,-0.683594 0.6836,-0.146484 0.92773,-0.488281 0.83008,-0.683594 0.39062,-0.683594 1.22071,-0.78125 z"
         style=""
         id="path3092" />
      <path
         d="m 469.80409,94.401703 0.39063,-0.732422 -2.00196,0.04883 -0.63476,0.195313 -2.63672,0.292968 -2.7832,-0.146484 -2.83203,-0.195312 -4.19922,-0.09766 -3.95508,-1.464843 -0.63477,0 -2.24609,-0.439454 -0.92774,-1.318359 0,-0.634766 1.0254,-0.830078 0.14648,-0.292968 1.51367,-0.53711 1.07422,0.390625 1.07422,-0.488281 0.58594,-0.976563 3.66211,-0.78125 1.70898,-0.24414 0.83008,-0.439453 1.07422,-0.488282 0.29297,0 0.92773,-0.195312 1.26953,0.78125 1.75781,-0.488281 2.14844,0.146484 3.07617,-0.146484 5.0293,-0.53711 5.51758,-0.292968 5.37109,0.24414 3.90625,-0.585937 5.0293,0.537109 4.54101,0.09766 5.90821,1.367188 2.49023,1.757812 -0.92773,0.53711 -1.66016,0.292968 -0.14648,0.341797 -1.17188,0.341797 -1.26953,0.244141 -0.3418,0.927734 -1.41601,-0.04883 -0.87891,0.634766 -2.39258,-0.195313 -0.29296,0.341797 -0.0977,0.634766 -0.29297,0 -0.53711,-0.439453 -0.73242,0.04883 -0.3418,0 -0.14648,0.04883 -0.0977,0.439453 -1.07422,-0.78125 -1.46484,0.634766 -0.43945,0.488281 -2.44141,0.292969 -1.12305,0.09766 -4.29687,0.341797 -1.22071,0.537109 -0.29296,0.146484 -0.58594,1.660157 -1.61133,4.638668 -2.63672,7.86133 -1.75781,6.15235 -1.31836,4.88281 -0.83008,3.66211 -0.78125,2.00195 -0.14648,2.09961 -0.83008,1.80664 -0.19531,1.07422 -0.19532,1.02539 -0.34179,0.92773 -0.24414,1.46485 -0.3418,1.31836 -0.39063,1.5625 -0.68359,2.09961 -0.14648,2.24609 -0.24414,1.46484 -0.14649,1.75782 0.0977,0.68359 -0.39063,1.61133 -0.58593,0.97656 -0.43946,2.92969 -0.53711,2.24609 -0.39062,0.19531 0.0977,0.6836 -0.29296,0.19531 -0.97657,-0.83008 -0.97656,-5.76172 0.19531,-0.78125 -0.43945,-0.92773 -0.3418,-2.92969 0.0488,-0.78125 0.0977,-1.02539 0,-1.75781 -0.3418,-0.68359 0.0488,-6.10352 0.0976,-1.80664 -0.0976,-0.48828 0.39062,-1.61133 -0.19531,-0.53711 0.3418,-3.41797 0.14648,-0.48828 0.3418,-4.44336 0.68359,-2.63672 0.63477,-3.80859 0.14648,-0.48828 0.24414,-0.97657 0.24414,-2.14843 0.48829,-1.51367 0.58593,-2.49024 0.39063,-2.05078 0.68359,-2.734375 0.14649,-0.390625 0.78125,-3.515625 z"
         style=""
         id="path3094" />
      <path
         d="m 520.53651,76.23764 2.49024,-0.830078 0.78125,0.195313 1.75781,0.78125 0.92774,1.464844 0.68359,2.929687 -0.68359,3.076172 -0.53711,3.076172 -1.07422,3.613281 -1.5625,3.564453 -1.61133,4.6875 -2.68555,7.861326 -1.70898,6.15235 -1.36719,4.83398 -0.78125,3.71094 -0.83008,1.95312 -0.14648,2.14844 -0.78125,1.80664 -0.19531,1.02539 -0.19532,1.07422 -0.58593,2.39258 -0.3418,1.26953 -1.07422,3.71094 -0.14648,2.24609 -0.24415,1.46484 -0.14648,1.75782 0.0488,0.63476 -0.3418,1.66016 -0.58594,0.97656 -0.43945,2.88086 -0.53711,2.29492 -0.3418,0.83008 -0.29296,0.24414 -0.92774,-0.83008 -1.02539,-5.81054 0.19531,-0.73243 -0.43945,-0.92773 -0.29297,-2.97852 0.0488,-0.73242 0.0488,-1.02539 0,-1.80664 -0.29297,-0.63476 0,-6.10352 0.14648,-1.80664 0.0488,-2.63672 0.39063,-3.41797 0.14648,-0.53711 0.29297,-4.39453 0.73242,-2.68555 0.78125,-4.24804 0.19531,-1.02539 0.29297,-2.14844 0.48828,-1.46484 0.53711,-2.53907 0.39063,-2.00195 0.73242,-2.734375 0.14648,-0.390625 0.73243,-3.515625 0.14648,-1.513671 0.29297,-0.732422 0.58594,-0.976563 0.58593,-1.513672 0.0977,-1.123047 0.87891,-1.464843 0.68359,-1.220703 -0.0488,-0.927735 1.02539,-1.855469 1.17188,-2.441406 0.53711,-0.341797 0.34179,-0.878906 0.58594,-0.830078 0.14649,-0.390625 0.83007,-0.683594 0.24415,-0.390625 z"
         style=""
         id="path3096" />
      <path
         d="m 566.14198,74.968109 0.97657,-1.269531 0.78125,0 0.14648,0.341797 1.70898,0 0.78125,0.292969 2.14844,1.5625 1.70899,0 0.63476,0.439453 0.63477,0.976562 0.14648,0.927735 0.92774,1.367187 1.07421,2.197266 0,2.34375 -0.78125,1.708984 -0.92773,1.074219 -1.07422,0.78125 -3.125,0.78125 -0.92773,0.439453 -0.43946,0.488281 -1.5625,1.5625 -2.05078,2.490235 -1.07422,1.5625 -1.36718,1.220703 -3.41797,3.710937 -0.63477,0.634761 -1.41601,1.85547 -0.29297,0.14649 -2.05078,2.97851 -0.78125,0.92774 -0.14649,0.48828 -1.2207,1.2207 -1.41602,2.19727 -0.29297,0 -1.5625,2.14844 -1.2207,1.41601 -1.41601,2.49024 -1.07422,1.51367 -0.78125,1.5625 -0.78125,1.41601 -0.63477,2.63672 -0.92773,2.34375 -0.29297,3.56445 0.14648,2.05079 1.36719,2.4414 2.34375,1.5625 2.49023,0.92774 3.41797,0.78125 2.49024,0.14648 3.27148,0 2.14844,-0.14648 0.3418,0.63476 0.58593,0.14649 -0.43945,0.48828 0.78125,0.43945 -0.14648,0.3418 -0.19532,0 0.19532,0.58594 -0.48828,0 -0.14649,-0.14649 -0.14648,0.48828 0.43945,0.14649 0,0.92773 -0.43945,-0.14648 -1.07422,0.78125 -1.9043,0.29297 -1.85547,0.48828 -0.29297,-0.19532 -1.85547,0.48829 -2.34375,0.14648 -3.27148,0.14648 -5.9082,-0.92773 -4.49219,-1.85547 -3.61328,-2.49023 -2.92969,-2.92969 -2.00195,-2.97852 -1.26953,-3.07617 -0.48828,-1.9043 0,-1.5625 -0.29297,-2.00195 0.29297,-4.19922 0.78125,-1.41601 -0.14649,-1.22071 0.48828,-0.43945 0.14649,-1.41601 0.29297,-1.07422 0.78125,-1.41602 0.63476,-1.70898 0.63477,-1.41602 1.85547,-2.92969 0.92773,-1.41601 0.48828,-0.78125 1.2207,-1.70899 0.92774,-0.92773 0.78125,-1.41602 2.7832,-3.076168 3.75977,-4.492188 1.5625,-1.757812 0.92773,-0.732422 0.29297,-0.634766 0.78125,-0.78125 2.7832,-2.490234 1.5625,-1.5625 3.27149,-2.929688 0.92773,-0.78125 1.85547,-1.269531 2.19727,-1.855469 1.70898,-1.416015 0.63477,-0.146485 0.29297,-0.292968 z"
         style=""
         id="path3098" />
    </g>
    <g
       style="font-size:100px;font-style:normal;font-variant:normal;font-weight:normal;font-stretch:normal;text-align:start;line-height:125%;letter-spacing:0px;word-spacing:0px;writing-mode:lr-tb;text-anchor:start;fill:#000000;fill-opacity:1;stroke:none;font-family:Smudger LET;-inkscape-font-specification:Smudger LET"
       id="text3853-1">
      <path
         d="m 134.84315,918.9472 2.83203,-0.29296 1.07422,0.29296 0.39062,0 1.07422,0.0977 1.85547,0 1.9043,-0.24414 2.7832,-0.14648 4.19922,0 2.24609,0.39062 2.58789,0 5.07813,0.29297 2.14844,0.24414 8.3496,0.83008 4.29688,0.39062 2.24609,0.39063 0.39063,0 0.14648,0.68359 -0.14648,0.83008 -1.70899,0.39063 -0.92773,0.14648 -0.53711,0.24414 -2.29492,-0.14648 -0.6836,0.29296 -1.85546,-0.14648 -0.43946,0.29297 -0.53711,-0.29297 -0.24414,0.53711 -0.39062,0.53711 0,0.68359 -1.36719,0.39063 -0.53711,-0.24414 -0.39062,0.39062 -0.14649,0 -1.46484,0.39063 -1.36719,1.07422 -0.53711,-0.24414 -0.24414,0.39062 -0.53711,-0.14648 -0.39062,0.39062 -2.83204,0.43945 -0.39062,-0.14648 -1.2207,0.53711 0,0.24414 -1.85547,0.43945 -1.07422,0.78125 -0.97656,0.39063 -0.63477,0.53711 -1.9043,0.68359 -1.75781,0.39063 -0.78125,0.14648 -0.39062,0.39063 -2.14844,0.14648 -1.51367,0.39062 -1.85547,0.6836 -2.00195,0.68359 -0.29297,0.53711 -0.6836,0.24414 -1.85547,4.29688 -0.83007,2.97851 -0.78125,1.31836 -0.14649,0.83008 -0.24414,0.92773 0.39063,0.14649 3.22265,-0.53711 5.22461,-0.14648 5.22461,0.24414 2.44141,0.29296 0.78125,0.24415 1.07422,0.14648 0.53711,0.29297 0.39062,0.0976 0,0.29297 -0.63477,1.31836 -2.05078,1.36719 -1.07422,0.68359 -0.48828,-0.14648 -0.43945,0.68359 -2.83203,0.63477 -3.32031,1.07422 -1.9043,0.63476 -5.61523,0.87891 -1.46485,0.0977 -1.75781,0.14648 -0.92774,4.44336 -0.29296,1.07422 -0.6836,3.85742 -0.39062,0.68359 0,4.44336 0.14648,0.92774 0,1.07422 0.39063,1.36718 1.07422,0.63477 1.61132,0.14648 2.53907,0 6.20117,-0.78125 2.00195,-0.53711 5.66406,-0.83007 3.32032,-0.92774 3.22265,-0.68359 4.05274,-1.2207 0.0977,0.58593 -1.5625,2.00196 0,0.24414 -1.51367,1.90429 -2.53906,2.14844 -1.75781,1.31836 -0.6836,0.39063 -0.24414,0.83007 -0.92773,0.39063 -1.75782,0.83008 -0.5371,0.53711 -0.53711,0 0,0.24414 -0.92774,0.83007 -0.68359,0.53711 -0.39063,-0.14648 -0.83008,0.53711 -0.5371,0.14648 0,0.24414 -1.07422,0.29297 -1.85547,0.78125 -0.53711,0.29297 -0.92774,0 -0.29296,0.24414 -4.1504,0.39063 -2.4414,-0.0977 -1.61133,-0.14648 -5.37109,-1.36719 -1.70899,-0.92774 -1.75781,-1.07421 -0.14648,-0.39063 -0.92774,-0.92773 -0.68359,-0.83008 -0.53711,-1.31836 -1.07422,-1.75781 -0.53711,-1.46485 -0.24414,-0.29297 -0.53711,-3.07617 0,-0.68359 -0.29297,-1.75781 -0.0977,-3.32032 0,-1.36718 0.39063,-1.07422 -0.14648,-0.39063 0,-2.00195 0.39062,-1.61133 0.14648,-1.2207 0.39063,-2.83203 1.07422,-4.54102 0.14648,-0.92773 0.6836,-2.44141 0.24414,-1.07422 0,-0.39062 0.83008,-1.9043 0.0977,-0.92773 0.14649,-1.07422 1.07421,-3.07618 0.83008,-2.68554 0.24414,-0.14649 0.53711,-2.39257 -0.78125,-0.53711 -1.61133,-1.36719 -0.97656,-1.07422 -0.39062,-0.63477 1.2207,-0.58593 0,-0.24414 0.68359,-0.39063 -0.29296,-0.53711 0.39062,-0.83008 0,-0.78125 1.75781,-1.07422 0.29297,0 0.92774,-0.68359 1.46484,-0.68359 0.68359,-0.14649 0.92774,-0.48828 0.83008,-0.68359 0.39062,-0.6836 1.2207,-0.78125 z"
         style=""
         id="path3065" />
      <path
         d="m 187.62635,911.08588 0.39063,-0.0977 0.58593,0 1.5625,0.83008 2.68555,3.36914 0.68359,1.70898 0.83008,2.83203 0.87891,3.27149 0.14648,0.24414 0.14649,3.125 -0.58594,2.97852 -0.14649,1.41601 -0.83007,3.66211 -0.87891,3.22266 -0.24414,0.73242 -0.43945,0.14648 -0.43946,1.70899 -0.43945,0.97656 -0.24414,1.5625 -0.97656,0.68359 -0.14649,1.12305 -0.8789,1.70898 -0.6836,1.41602 0.14649,0.53711 -0.29297,0.87891 -1.12305,1.26953 -0.29297,1.70898 -0.58593,0.97656 -0.6836,1.70899 0,0.97656 -0.73242,0.43945 -0.39063,0.83008 -0.8789,1.41602 -0.24414,0 -0.43946,0.68359 0.14649,0.58594 -0.29297,0.29297 0.14648,1.26953 -0.8789,1.5625 -0.24414,0.24414 -0.29297,0.87891 -0.73242,1.80664 -0.39063,2.00195 -0.14648,1.80664 -0.43946,1.5625 0.29297,1.70898 0.6836,1.5625 1.26953,0.53711 1.17187,0 0.83008,0.14649 4.39453,0 1.70899,-0.29297 2.92968,-0.24414 2.14844,0 0.39063,0.53711 1.85547,0.14648 3.125,-0.14648 0.39062,-0.29297 1.85547,0 1.26953,0.14648 1.12305,-0.53711 0.97656,-0.14648 11.86523,1.41602 2.5879,0.53711 3.07617,0.43945 2.24609,0.29297 -0.0977,0.43945 -1.17187,0.68359 -0.39063,0 -0.29296,0.43946 -1.12305,0.39062 -1.41602,0 -1.5625,0.58594 -0.97656,0.83008 -2.00195,0.58594 -2.09961,0.68359 -1.85547,1.02539 -0.53711,0 -1.12305,0.39062 -2.97851,0.73243 -0.97656,-0.14649 -1.0254,0.53711 -0.97656,-0.0976 -0.97656,0.5371 -2.29492,0 -1.66016,0.29297 -5.51758,0.43946 -6.78711,0.24414 -2.53906,-0.0977 -1.85547,-0.29297 -2.39258,-0.29297 -2.97851,-0.97656 -2.68555,-1.26953 -1.26953,-1.02539 -0.14648,-0.53711 -0.6836,-0.73242 -0.43945,-1.41602 -0.29297,-0.24414 -0.97656,-2.53906 -0.29297,-0.43945 -0.14648,-0.97657 -0.39063,-1.17187 0,-0.83008 -0.14648,-1.85547 0,-0.39062 0.14648,-1.12305 -0.14648,-2.00195 0.68359,-6.34766 0.14648,-0.58594 0.87891,-3.66211 0.24414,-2.68554 0.29297,-0.53711 1.12305,-5.51758 0.14648,-0.29297 0.58594,-2.68555 1.41601,-5.22461 0.29297,-0.43945 0.0977,-1.12305 0.43945,-1.12304 1.41602,-5.22461 1.41601,-4.98047 0.43946,-0.53711 0.24414,-1.26953 1.70898,-3.8086 0.58594,-1.5625 0.83008,-2.68554 0.29297,-0.29297 0.53711,-1.95313 0.14648,-0.29296 0.29297,-1.26954 1.12305,0.39063 -0.14649,-1.26953 0.14649,-0.14649 0.73242,0.43946 0.43945,-0.14649 z"
         style=""
         id="path3067" />
      <path
         d="m 241.28846,918.9472 2.83203,-0.29296 1.07422,0.29296 0.39062,0 1.07422,0.0977 1.85547,0 1.9043,-0.24414 2.7832,-0.14648 4.19922,0 2.24609,0.39062 2.5879,0 5.07812,0.29297 2.14844,0.24414 8.34961,0.83008 4.29687,0.39062 2.2461,0.39063 0.39062,0 0.14649,0.68359 -0.14649,0.83008 -1.70898,0.39063 -0.92774,0.14648 -0.53711,0.24414 -2.29492,-0.14648 -0.68359,0.29296 -1.85547,-0.14648 -0.43945,0.29297 -0.53711,-0.29297 -0.24414,0.53711 -0.39063,0.53711 0,0.68359 -1.36719,0.39063 -0.53711,-0.24414 -0.39062,0.39062 -0.14649,0 -1.46484,0.39063 -1.36719,1.07422 -0.53711,-0.24414 -0.24414,0.39062 -0.53711,-0.14648 -0.39062,0.39062 -2.83203,0.43945 -0.39063,-0.14648 -1.2207,0.53711 0,0.24414 -1.85547,0.43945 -1.07422,0.78125 -0.97656,0.39063 -0.63477,0.53711 -1.90429,0.68359 -1.75782,0.39063 -0.78125,0.14648 -0.39062,0.39063 -2.14844,0.14648 -1.51367,0.39062 -1.85547,0.6836 -2.00195,0.68359 -0.29297,0.53711 -0.68359,0.24414 -1.85547,4.29688 -0.83008,2.97851 -0.78125,1.31836 -0.14649,0.83008 -0.24414,0.92773 0.39063,0.14649 3.22265,-0.53711 5.22461,-0.14648 5.22461,0.24414 2.44141,0.29296 0.78125,0.24415 1.07422,0.14648 0.53711,0.29297 0.39062,0.0976 0,0.29297 -0.63476,1.31836 -2.05078,1.36719 -1.07422,0.68359 -0.48828,-0.14648 -0.43946,0.68359 -2.83203,0.63477 -3.32031,1.07422 -1.9043,0.63476 -5.61523,0.87891 -1.46485,0.0977 -1.75781,0.14648 -0.92773,4.44336 -0.29297,1.07422 -0.6836,3.85742 -0.39062,0.68359 0,4.44336 0.14648,0.92774 0,1.07422 0.39063,1.36718 1.07422,0.63477 1.61133,0.14648 2.53906,0 6.20117,-0.78125 2.00195,-0.53711 5.66407,-0.83007 3.32031,-0.92774 3.22265,-0.68359 4.05274,-1.2207 0.0977,0.58593 -1.5625,2.00196 0,0.24414 -1.51368,1.90429 -2.53906,2.14844 -1.75781,1.31836 -0.6836,0.39063 -0.24414,0.83007 -0.92773,0.39063 -1.75781,0.83008 -0.53711,0.53711 -0.53711,0 0,0.24414 -0.92774,0.83007 -0.68359,0.53711 -0.39062,-0.14648 -0.83008,0.53711 -0.53711,0.14648 0,0.24414 -1.07422,0.29297 -1.85547,0.78125 -0.53711,0.29297 -0.92773,0 -0.29297,0.24414 -4.15039,0.39063 -2.44141,-0.0977 -1.61133,-0.14648 -5.37109,-1.36719 -1.70899,-0.92774 -1.75781,-1.07421 -0.14648,-0.39063 -0.92774,-0.92773 -0.68359,-0.83008 -0.53711,-1.31836 -1.07422,-1.75781 -0.53711,-1.46485 -0.24414,-0.29297 -0.53711,-3.07617 0,-0.68359 -0.29297,-1.75781 -0.0976,-3.32032 0,-1.36718 0.39062,-1.07422 -0.14648,-0.39063 0,-2.00195 0.39062,-1.61133 0.14649,-1.2207 0.39062,-2.83203 1.07422,-4.54102 0.14649,-0.92773 0.68359,-2.44141 0.24414,-1.07422 0,-0.39062 0.83008,-1.9043 0.0977,-0.92773 0.14649,-1.07422 1.07422,-3.07618 0.83008,-2.68554 0.24414,-0.14649 0.53711,-2.39257 -0.78125,-0.53711 -1.61133,-1.36719 -0.97657,-1.07422 -0.39062,-0.63477 1.2207,-0.58593 0,-0.24414 0.6836,-0.39063 -0.29297,-0.53711 0.39062,-0.83008 0,-0.78125 1.75782,-1.07422 0.29296,0 0.92774,-0.68359 1.46484,-0.68359 0.6836,-0.14649 0.92773,-0.48828 0.83008,-0.68359 0.39062,-0.6836 1.22071,-0.78125 z"
         style=""
         id="path3069" />
      <path
         d="m 314.43299,914.74799 0.97656,-1.26954 0.78125,0 0.14649,0.3418 1.70898,0 0.78125,0.29297 2.14844,1.5625 1.70898,0 0.63477,0.43945 0.63477,0.97657 0.14648,0.92773 0.92773,1.36719 1.07422,2.19726 0,2.34375 -0.78125,1.70899 -0.92773,1.07422 -1.07422,0.78125 -3.125,0.78125 -0.92773,0.43945 -0.43946,0.48828 -1.5625,1.5625 -2.05078,2.49024 -1.07422,1.5625 -1.36719,1.2207 -3.41796,3.71094 -0.63477,0.63476 -1.41602,1.85547 -0.29296,0.14648 -2.05079,2.97852 -0.78125,0.92773 -0.14648,0.48829 -1.2207,1.2207 -1.41602,2.19726 -0.29297,0 -1.5625,2.14844 -1.2207,1.41602 -1.41602,2.49023 -1.07421,1.51367 -0.78125,1.5625 -0.78125,1.41602 -0.63477,2.63672 -0.92773,2.34375 -0.29297,3.56445 0.14648,2.05078 1.36719,2.44141 2.34375,1.5625 2.49023,0.92773 3.41797,0.78125 2.49024,0.14649 3.27148,0 2.14844,-0.14649 0.34179,0.63477 0.58594,0.14648 -0.43945,0.48828 0.78125,0.43946 -0.14649,0.34179 -0.19531,0 0.19531,0.58594 -0.48828,0 -0.14648,-0.14648 -0.14649,0.48828 0.43946,0.14648 0,0.92774 -0.43946,-0.14649 -1.07421,0.78125 -1.9043,0.29297 -1.85547,0.48828 -0.29297,-0.19531 -1.85547,0.48828 -2.34375,0.14649 -3.27148,0.14648 -5.9082,-0.92773 -4.49219,-1.85547 -3.61328,-2.49024 -2.92969,-2.92968 -2.00195,-2.97852 -1.26954,-3.07617 -0.48828,-1.9043 0,-1.5625 -0.29297,-2.00195 0.29297,-4.19922 0.78125,-1.41602 -0.14648,-1.2207 0.48828,-0.43945 0.14648,-1.41602 0.29297,-1.07422 0.78125,-1.41601 0.63477,-1.70899 0.63476,-1.41601 1.85547,-2.92969 0.92774,-1.41602 0.48828,-0.78125 1.2207,-1.70898 0.92774,-0.92773 0.78125,-1.41602 2.7832,-3.07617 3.75977,-4.49219 1.5625,-1.75781 0.92773,-0.73242 0.29297,-0.63477 0.78125,-0.78125 2.7832,-2.49023 1.5625,-1.5625 3.27149,-2.92969 0.92773,-0.78125 1.85547,-1.26953 2.19726,-1.85547 1.70899,-1.41602 0.63476,-0.14648 0.29297,-0.29297 z"
         style=""
         id="path3071" />
      <path
         d="m 347.00135,934.18158 0.39063,-0.73242 -2.00196,0.0488 -0.63476,0.19531 -2.63672,0.29297 -2.78321,-0.14649 -2.83203,-0.19531 -4.19922,-0.0977 -3.95507,-1.46484 -0.63477,0 -2.24609,-0.43945 -0.92774,-1.31836 0,-0.63477 1.02539,-0.83008 0.14649,-0.29296 1.51367,-0.53711 1.07422,0.39062 1.07422,-0.48828 0.58593,-0.97656 3.66211,-0.78125 1.70899,-0.24414 0.83008,-0.43946 1.07422,-0.48828 0.29296,0 0.92774,-0.19531 1.26953,0.78125 1.75781,-0.48828 2.14844,0.14648 3.07617,-0.14648 5.0293,-0.53711 5.51758,-0.29297 5.37109,0.24414 3.90625,-0.58594 5.0293,0.53711 4.54101,0.0977 5.90821,1.36719 2.49023,1.75781 -0.92773,0.53711 -1.66016,0.29297 -0.14648,0.34179 -1.17188,0.3418 -1.26953,0.24414 -0.3418,0.92774 -1.41601,-0.0488 -0.87891,0.63476 -2.39258,-0.19531 -0.29297,0.3418 -0.0977,0.63476 -0.29297,0 -0.53711,-0.43945 -0.73242,0.0488 -0.3418,0 -0.14648,0.0488 -0.0977,0.43945 -1.07422,-0.78125 -1.46484,0.63477 -0.43946,0.48828 -2.4414,0.29297 -1.12305,0.0976 -4.29687,0.3418 -1.22071,0.53711 -0.29297,0.14648 -0.58593,1.66016 -1.61133,4.63867 -2.63672,7.86133 -1.75781,6.15234 -1.31836,4.88281 -0.83008,3.66211 -0.78125,2.00196 -0.14648,2.09961 -0.83008,1.80664 -0.19532,1.07422 -0.19531,1.02539 -0.34179,0.92773 -0.24415,1.46484 -0.34179,1.31836 -0.39063,1.5625 -0.68359,2.09961 -0.14649,2.2461 -0.24414,1.46484 -0.14648,1.75781 0.0977,0.6836 -0.39063,1.61133 -0.58594,0.97656 -0.43945,2.92969 -0.53711,2.24609 -0.39062,0.19531 0.0976,0.6836 -0.29297,0.19531 -0.97656,-0.83008 -0.97656,-5.76172 0.19531,-0.78125 -0.43945,-0.92773 -0.3418,-2.92969 0.0488,-0.78125 0.0977,-1.02539 0,-1.75781 -0.3418,-0.6836 0.0488,-6.10351 0.0976,-1.80664 -0.0976,-0.48829 0.39062,-1.61132 -0.19531,-0.53711 0.3418,-3.41797 0.14648,-0.48828 0.3418,-4.44336 0.68359,-2.63672 0.63477,-3.80859 0.14648,-0.48829 0.24414,-0.97656 0.24414,-2.14844 0.48828,-1.51367 0.58594,-2.49023 0.39063,-2.05078 0.68359,-2.73438 0.14648,-0.39062 0.78125,-3.51563 z"
         style=""
         id="path3073" />
      <path
         d="m 423.80799,928.95697 -0.29297,0 -2.53906,0.68359 -1.12305,0.97657 -1.26953,0.43945 -2.14844,1.26953 -1.12304,0.68359 -0.6836,1.0254 -2.00195,1.80664 0,0.58593 -0.97656,0.43946 -1.41602,1.80664 -0.73242,0.8789 -0.68359,1.80664 -1.41602,1.70899 -0.29297,0.53711 -0.97656,2.00195 -0.73242,0.83008 -1.36719,3.27148 4.05273,-1.70898 3.125,-1.80664 0.97657,-0.73242 4.10156,-3.8086 2.14844,-2.24609 1.80664,-2.53906 0.58594,-0.43946 0.43945,-0.83007 0.97656,-1.5625 0.43945,-1.41602 0.6836,-1.70898 z m -3.95508,-9.61914 1.95313,-0.29297 2.83203,0.14649 1.85547,0.68359 1.80664,1.26953 1.85547,1.26953 2.53906,3.27149 0.83008,1.5625 0.73242,2.53906 0.29297,1.80664 -0.29297,1.31836 0.14648,0.24414 -0.43945,2.14844 -1.70898,2.39257 -0.24414,0 -0.73243,0.83008 -0.58593,0.14649 -0.83008,0 -0.97656,1.12304 -0.73243,1.02539 -1.36718,0.83008 -3.85743,3.22266 -1.26953,0.87891 -0.83007,1.12304 -1.70899,1.26953 -1.26953,1.12305 -0.53711,0.29297 -0.43945,0 -1.70899,1.5625 -1.26953,0.43945 -2.68555,1.51367 -0.5371,0.58594 -1.0254,0 -1.5625,0.97656 -0.68359,0 0,0.43946 2.68555,1.12304 8.64258,3.125 5.37109,2.39258 2.7832,1.26953 2.68555,1.41602 4.10156,2.53906 4.54102,2.68555 0.83008,0.29297 0.73242,0.53711 -0.14649,0.29297 -0.43945,-0.14649 -1.95312,-0.14648 0,0.58593 -1.0254,-0.14648 0,0.14648 0.14649,0.6836 -0.83008,0.58594 -0.43945,0 -0.53711,0.43945 -0.43945,-0.29297 -1.70899,-0.58594 -0.97656,0.14649 -1.70899,-0.43946 -0.29296,0 -3.8086,-1.26953 -2.24609,-0.39062 -9.32617,-3.125 -1.70899,-0.83008 -0.83008,-0.29297 -9.0332,-3.125 -2.53906,-0.53711 -0.58594,1.26953 -0.53711,2.2461 -0.73242,2.39257 -1.12305,3.95508 -0.43945,0.87891 -0.53711,1.26953 0.14648,0.97656 -0.43945,0.6836 -0.29297,1.41601 -0.58594,1.26953 -0.97656,1.41602 -0.53711,0.58594 0,0.43945 -0.43945,0.83008 -0.68359,0.43945 -0.73243,2.24609 -0.43945,0.53711 -0.14648,0.43946 -0.6836,0.43945 -0.58593,1.12305 -1.41602,0 -0.39063,0.83007 -1.26953,-0.29296 -0.14648,0.43945 -0.73242,0 -0.97657,0.43945 -1.12304,-0.29297 -2.53906,-2.39257 -0.43946,-0.14649 -0.68359,-1.26953 -0.43945,-0.29297 0.14648,-1.70898 -0.43945,-0.6836 0.14648,-0.83008 0.58594,-3.85742 0,-2.63672 0.14648,-1.02539 1.12305,-5.22461 2.68555,-9.0332 1.41601,-6.64062 2.09961,-7.47071 1.12305,-2.97851 1.12305,-2.14844 0,-0.53711 0.73242,-0.83008 -0.14649,-0.73242 0.6836,-2.68555 1.02539,-2.39257 0,-0.43946 0.68359,-1.12304 0.97656,-0.97657 1.26953,-0.14648 1.0254,-0.29297 1.26953,0.14648 1.41601,0.83008 1.41602,0.58594 1.12304,0 0.43946,-0.29297 0.97656,-0.58594 4.24805,-3.80859 2.24609,-1.51367 1.41602,-1.17188 3.07617,-1.80664 3.71094,-1.5625 z"
         style=""
         id="path3075" />
      <path
         d="m 471.90369,938.3808 -1.75781,-1.61133 -2.05078,0.29297 -1.51367,0.43945 -1.75781,2.29492 -1.9043,4.00391 -2.63672,4.88281 -0.87891,1.66016 -0.58593,2.34375 -0.78125,1.41601 -0.92774,2.73438 -0.39062,0.43945 -1.46485,3.02735 -1.66015,3.90625 0.0488,3.71093 0.73242,3.02735 0.83008,0.97656 1.5625,1.5625 3.17382,1.12305 5.56641,0.14648 0.58594,-0.19531 1.17187,-0.19531 2.14844,-0.19532 3.17383,-1.41601 1.36719,-1.02539 1.5625,-0.58594 1.36718,-1.80664 1.36719,-3.75977 0.92773,-3.36914 0.19532,-1.5625 0.97656,-1.41601 -0.39063,-0.58594 0.14649,-3.95508 -1.2207,-5.9082 -1.02539,-3.125 -0.83008,-1.61133 -1.95313,-2.14844 -1.80664,-2.73437 z m -1.07421,-16.11328 0.58593,-0.29297 1.41602,0.29297 0.97656,-0.14649 0.73242,0.53711 0.6836,0.73242 0.14648,0.53711 0.73242,1.12305 0.6836,0.29297 0,0.43945 0.0488,1.66016 0.29297,1.26953 1.5625,1.41602 1.41602,1.12304 1.26953,1.41602 0.43945,-0.0488 0.83008,1.26953 1.02539,1.26953 0.83008,1.41602 1.02539,0.83008 0.29297,0.58593 0.73242,1.36719 -0.14648,0.43945 0.53711,0.29297 0.73242,1.5625 0,0.24414 1.17187,0.97657 0.29297,1.02539 0.14649,1.80664 0.39062,0.14648 0.58594,1.12305 0.29297,2.83203 0.58594,2.09961 0.29296,2.14844 0.3418,1.36718 1.12305,0.14649 -0.14649,0.73242 -0.14648,1.12305 0,1.12304 0.14648,0.29297 0.29297,0 -0.39062,1.80664 -0.3418,2.44141 -0.58594,2.53906 0,0.43946 -0.29297,0.39062 0,0.87891 -0.68359,1.12304 -0.68359,2.39258 -0.58594,0.58594 0,0.68359 -0.39063,0.87891 -1.12304,1.26953 0.29297,0.53711 -0.29297,0.43945 -0.97657,0.58594 -0.43945,0.58594 -1.12305,0.39062 -0.68359,1.02539 -0.53711,0.97657 -0.43945,0.43945 -1.95313,1.17187 -1.02539,0.24414 -0.39062,0.43946 -1.12305,0.8789 -1.5625,0.29297 -1.41601,0.43946 -0.39063,0.43945 -1.70898,0.83008 -2.09961,0.29297 -1.12305,0.43945 -1.12305,0.29297 -1.02539,-0.0977 -1.26953,0.53711 -3.95508,-0.3418 -3.36914,-0.68359 -3.85742,-1.5625 -0.68359,-0.39062 -1.02539,-0.43946 -3.66211,-1.95312 -1.85547,-1.36719 -2.73438,-2.53906 -2.14843,-3.07617 -1.5625,-2.92969 -1.17188,-4.10156 -0.43945,-2.2461 0.0977,-4.83398 0.29297,-2.39258 1.07422,-4.39453 1.80664,-3.95508 0.53711,-0.58594 0.14649,-0.73242 1.41601,-2.24609 1.07422,-1.70899 3.36914,-4.6875 1.12305,-1.5625 4.05273,-5.12695 1.12305,-1.26953 0.39062,-0.43946 1.12305,-0.73242 0.87891,-1.26953 1.12304,-0.58594 0.83008,-0.97656 0.97656,-0.43945 1.12305,-1.12305 1.26953,-0.58594 0.83008,-0.58593 3.66211,-1.02539 0.29297,-0.29297 z"
         style=""
         id="path3077" />
      <path
         d="m 559.25721,928.02924 -0.24414,3.61328 -0.43945,2.14843 0.58593,0.83008 0.24414,3.41797 -0.24414,2.68555 0,1.51367 -0.29297,1.26953 0.43946,1.5625 -0.53711,5.76172 -0.0977,1.75781 -0.43945,5.95703 -0.0977,2.44141 -0.58593,1.70898 -0.14649,1.85547 -0.43945,2.19727 -0.6836,2.39258 -0.14648,1.12304 -1.02539,2.53907 -0.68359,2.24609 -0.6836,1.70898 -0.58594,1.5625 0,0.29297 -0.83007,0.6836 -0.53711,2.83203 -0.78125,1.61133 -1.02539,1.31836 -1.02539,1.02539 -0.53711,0.83007 -2.2461,0.73243 -1.5625,-0.43946 -1.61133,-0.78125 -1.5625,-1.07422 -1.75781,-2.00195 -2.39258,-2.53906 -2.39257,-2.58789 -1.12305,-1.26953 -2.83203,-2.68555 -3.41797,-4.3457 -0.83008,-1.26953 -0.83008,-0.73243 -3.41797,-5.51757 -2.09961,-3.07618 -2.29492,-2.97851 -0.97656,3.36914 -0.53711,1.70898 -0.14648,1.12305 -1.12305,3.27148 -1.12305,3.41797 -1.12304,2.78321 0.0977,0.58593 -0.68359,1.12305 -0.29297,1.95313 -0.43945,2.53906 -0.43946,2.4414 -0.97656,2.09961 -0.14648,1.26954 -0.29297,0.29296 -0.24414,1.41602 -0.97657,-0.29297 -0.8789,2.24609 -0.53711,2.14844 -0.73242,1.26953 -1.70899,0.83008 -0.39062,0 -0.58594,-0.43945 -0.97656,0 -0.73242,-0.0977 -0.53711,-0.8789 -1.5625,-1.12305 -0.29297,-0.83008 0.43945,-2.14844 -0.14648,-1.5625 0.14648,-4.63867 0.29297,-2.68555 0.14648,-2.0996 0.6836,-7.08008 0.14648,-2.00196 0.29297,-1.66015 0.68359,-4.10156 0.87891,-6.78711 2.39258,-13.28125 0.39062,-1.26954 0.43946,-1.70898 0.97656,-4.54102 1.02539,-2.92968 0.53711,-1.26953 0.73242,-0.87891 0.0977,-0.68359 0.73242,-0.43946 0.83008,-0.43945 1.5625,-0.24414 3.41797,0.83008 1.26953,1.26953 0.14648,0.43945 1.41602,1.51367 0.97656,1.31836 1.12305,3.07617 1.17187,1.46485 0.6836,2.39258 1.75781,3.07617 2.39258,3.41797 1.17187,2.05078 1.17188,1.46484 0.97656,1.46485 0.63476,1.07421 1.07422,1.70899 0.83008,1.66016 0.14649,0.43945 0.68359,1.70898 0.87891,2.39258 0.97656,1.70899 1.12304,1.26953 1.9043,4.6875 0.58594,0.83007 0.97656,1.41602 0.87891,1.85547 0.19531,-2.09961 0,-1.5625 0.53711,-2.05078 0.29297,-2.34375 0.39062,-1.12305 0.14649,-1.5625 0.48828,-2.39258 1.51367,-7.76367 0.53711,-5.17578 0.63477,-3.22266 0.68359,-2.63671 0.78125,-5.76172 0.53711,-2.88086 0,-1.75782 0.29297,-1.85546 0.39062,-2.44141 0.78125,-3.4668 0.53711,-2.09961 0.83008,-2.39257 1.5625,-4.1504 1.26953,-2.53906 0.92774,-2.05078 0.97656,-1.80664 1.07422,-1.85547 1.07422,-2.58789 0.97656,-0.14648 0.78125,0.58593 0.14648,1.07422 -0.29297,1.70899 -0.63476,3.125 0,0.29297 -0.29297,0.43945 0.83008,0.53711 -0.14649,1.36719 0.14649,1.46484 -0.14649,2.24609 0.14649,2.00196 0.24414,3.02734 0.0977,2.19727 -0.14648,3.02734 z"
         style=""
         id="path3079" />
      <path
         d="m 614.67713,925.92963 -0.53711,1.31836 -0.92773,1.17187 -1.31836,0.83008 -1.61133,0.78125 -1.46484,0.83008 -1.46485,0.92773 -2.24609,1.31836 -2.14844,0.78125 -1.85547,1.2207 -1.36718,0.92774 -1.5625,0.39062 -0.83008,0.6836 -1.17188,0.53711 -1.07422,0.24414 -0.92773,0.53711 -0.68359,0.29297 -0.73243,0.63476 -1.41601,0.73242 -0.29297,0.53711 -1.66016,1.12305 -2.00195,1.70898 -1.66016,1.26953 -0.58593,0.58594 -1.41602,1.12305 -0.83008,1.12305 -1.26953,0.48828 -1.46484,1.31836 -1.17188,2.4414 -0.58594,2.29492 0.14649,2.09961 0.43945,1.12305 3.22266,2.39258 0.73242,0.43945 2.53906,1.41602 1.41602,0.97656 1.26953,0.73242 0.97656,0.39063 2.00196,1.26953 0.39062,0.58594 2.53906,1.26953 1.5625,1.26953 2.39258,1.5625 2.39258,2.53906 0.92773,0.78125 1.07422,1.07422 1.31836,1.2207 1.07422,1.46485 1.2207,1.85547 0.53711,1.85546 0.24414,1.75782 -0.19531,1.36718 -0.0488,1.07422 -0.14648,0.87891 -0.87891,1.9043 -2.4414,2.09961 -2.53907,1.07421 -1.07422,0.53711 -1.2207,0.24414 -2.00195,0.53711 -2.7832,0.39063 -3.07618,0 -3.85742,-0.24414 -2.00195,-0.14649 -1.75781,-0.24414 -1.02539,0 -2.63672,-0.53711 -1.17188,0 -0.53711,-0.29297 -0.58594,0 -0.14648,-0.14648 -0.39062,0.14648 -0.43946,-0.43945 -0.29297,0.14649 0,0.43945 -0.14648,0.29297 -0.39063,-0.29297 -0.43945,0 -0.43945,-0.73242 -0.6836,-0.39063 -0.29296,0.24414 -0.73243,-0.0977 0,0.0977 -0.53711,0.14649 -0.14648,-0.14649 -0.58594,0.14649 -0.53711,-0.39063 -0.29297,0 -0.43945,-0.29297 -0.24414,0.14649 0,-0.14649 0.0977,-0.14648 1.17187,-0.29297 1.95313,-0.29297 1.41601,0 1.12305,-0.24414 1.70898,-0.14648 2.00196,-0.58594 0.24414,-0.14649 3.125,-0.29296 1.12304,-0.0977 1.41602,-0.14648 2.24609,0 0.58594,-0.29297 2.24609,-0.14649 0.58594,0 0.6836,-0.43945 1.5625,-0.0977 0.97656,0 0.43945,-0.29297 1.12305,-0.14648 0.73242,0 0.68359,-0.14648 0.58594,0.14648 0.83008,-0.29297 0.97656,-0.97656 1.02539,0 0.6836,-0.43945 0.92773,-0.73243 0.24414,-0.92773 0.0977,-0.87891 -0.3418,-0.58593 0.0977,-0.87891 -0.39063,-0.58594 -0.34179,-0.63476 -0.53711,-0.43946 -0.39063,-0.53711 -0.92773,-0.68359 -1.02539,-0.83008 -1.51368,-1.2207 -1.5625,-0.53711 -2.09961,-1.41602 -1.41601,-0.68359 -0.97656,-0.43945 -2.00196,-1.26953 -0.97656,-0.29297 -0.73242,-0.6836 -0.53711,0 -1.70898,-0.58593 -0.53711,-0.39063 -2.44141,-0.63477 -2.92969,-0.92773 -2.29492,-0.43945 -0.39062,-0.3418 -1.75782,-0.53711 -1.51367,-0.83008 -1.70898,-1.66015 -1.41602,-1.02539 -1.95312,-1.95313 -1.12305,-1.70898 -0.43945,-1.41602 -0.43946,-1.5625 0,-4.10156 0.73242,-0.83008 0.53711,-0.97656 0,-1.12305 1.02539,-2.00195 0.97657,-1.12305 0.97656,-1.41601 2.53906,-2.53907 1.5625,-1.41601 2.2461,-1.5625 1.85546,-1.70899 1.70899,-1.36718 4.3457,-2.97852 2.00196,-1.26953 2.39257,-1.85547 3.27149,-1.95313 0.83008,-0.29296 0.97656,-0.97657 3.27148,-2.14843 3.36914,-1.95313 1.02539,-1.26953 0.53711,-0.14648 0.83008,-0.87891 1.02539,-0.39063 0.97656,-0.8789 0.73243,0 0.97656,-0.39063 1.26953,0 2.05078,0.29297 2.83203,1.66016 0.6836,1.95312 0.53711,1.5625 0.29296,0.97657 z"
         style=""
         id="path3081" />
    </g>
    <g
       style="font-size:250px;font-style:normal;font-variant:normal;font-weight:normal;font-stretch:normal;text-align:start;line-height:125%;letter-spacing:0px;word-spacing:0px;writing-mode:lr-tb;text-anchor:start;fill:#000000;fill-opacity:1;stroke:none;font-family:Smudger LET;-inkscape-font-specification:Smudger LET"
       id="text3853-1-4">
      <path
         d="m 345.75354,406.13635 1.2207,-0.36621 3.17383,0 2.80762,1.2207 3.2959,4.39454 0.73242,0.36621 2.44141,4.5166 0.36621,3.54004 -0.36621,2.07519 0.85449,0.73242 0,2.44141 -0.85449,2.44141 -0.36622,2.80761 -3.66211,7.69043 -2.4414,4.39454 -1.2207,0.36621 0.48828,1.70898 -1.22071,1.09863 -4.88281,8.54493 -1.95312,1.09863 -0.8545,1.70898 -3.66211,5.61524 -1.58691,1.95312 -1.95312,4.88281 -0.8545,1.22071 -1.2207,2.80761 -3.66211,6.10352 -1.2207,3.54004 -1.09864,0.85449 0.36622,2.80762 -4.02832,4.39453 0,4.88281 -1.22071,0.36621 -1.2207,2.80762 -1.95313,4.88281 0,2.80762 -0.48828,1.95313 -1.2207,0.48828 0.48828,2.31933 -0.85449,0 0.36621,1.22071 -1.95313,10.13183 -0.36621,3.54004 -1.2207,2.0752 0.73242,1.2207 -0.73242,1.95312 -0.85449,1.22071 0,0.85449 0.85449,0.73242 -1.70898,7.32422 -0.73243,3.66211 0,2.31934 -1.2207,6.10351 -1.2207,1.2207 -1.58692,4.39454 -1.2207,4.39453 -0.73242,2.4414 -0.85449,0.36621 -0.8545,-0.73242 -1.2207,1.58692 -1.58691,0.36621 -1.95313,2.80761 -1.2207,-0.36621 0,-0.36621 0.36621,-39.55078 1.2207,-15.25879 1.95313,-9.64355 2.07519,-10.86426 6.83594,-20.1416 6.46973,-18.55469 -9.27735,6.83594 -6.46972,2.80762 -4.02832,0.48828 -3.54004,-0.8545 -4.88281,-1.95312 -2.80762,-2.0752 -2.0752,-1.58691 2.44141,-5.61523 11.23047,-11.71875 19.77539,-16.96778 17.70019,-13.30566 z"
         style=""
         id="path3101" />
      <path
         d="m 439.01526,421.39514 0.85449,-0.73242 12.81738,2.80762 0.48829,0.36621 0,1.2207 -0.48829,0.73242 0.48829,1.70899 -2.80762,2.31933 -2.44141,4.15039 -0.36621,1.09864 0.36621,0.48828 -0.85449,2.4414 -0.73242,0.36622 0,0.36621 0.73242,0.85449 -0.73242,1.09863 1.09863,3.54004 1.58691,2.92969 0.36622,2.56347 0,0.8545 -4.39454,0.85449 -1.58691,1.34277 -5.12695,1.70899 -7.93457,1.83105 -4.39453,0.24414 -2.31934,-0.24414 -7.69043,0 -7.56836,-0.12207 -2.07519,-1.2207 -0.73243,1.2207 -2.07519,-1.2207 -1.70899,4.27246 -5.49316,9.64355 -2.31934,4.02832 17.7002,7.69043 7.69043,4.39453 10.86426,8.05665 3.54004,4.5166 2.07519,4.76074 -0.36621,2.44141 1.58691,6.83593 -1.2207,1.58692 -3.2959,4.02832 -3.54004,2.80761 -2.07519,1.22071 -0.73242,1.70898 -2.92969,0.36621 -3.54004,1.22071 -6.46973,2.80761 -4.39453,3.54004 -3.2959,0.48828 -2.4414,1.58692 -4.39453,3.17383 -4.76075,0.48828 -3.66211,1.95312 -1.58691,0 0,-0.73242 -4.39453,0.36621 -2.80762,0 -3.2959,0.85449 -1.2207,0.73242 -6.83594,0 0.36621,-1.58691 -5.12695,0.36621 -0.85449,0.85449 0.36621,0.8545 -2.44141,-0.48829 -2.31933,0.48829 -3.66211,-1.70899 -2.44141,0 -1.58691,-2.80762 0.36621,-1.2207 -0.73242,-0.36621 1.58691,-1.58691 -1.2207,-1.70899 0.85449,-0.73242 0.73242,-2.44141 2.80762,-2.80761 0.48828,-1.58692 1.58691,-0.85449 3.54004,-1.95312 7.32422,-2.44141 9.27735,-4.39453 16.11328,-7.69043 0.73242,0 6.83594,-4.02832 1.2207,-0.36621 0.48828,-2.0752 -7.69043,-3.54004 -13.30566,-5.7373 -4.88282,-2.44141 -3.54003,-3.54004 -2.44141,-4.39453 -1.2207,-5.24902 0.85449,-5.73731 2.31933,-5.98144 8.54493,-12.08496 0,-0.36621 -3.2959,-2.0752 0,-1.58691 -2.80762,-4.02832 -0.36621,-1.22071 1.95312,-3.17382 4.88282,-4.88282 1.95312,-2.80761 0.48828,-1.58692 1.95313,-0.36621 1.2207,0 4.02832,0 1.2207,0.36621 2.44141,-1.58691 5.24902,0.36621 0.36622,0.85449 2.4414,-0.85449 0.36621,0.85449 1.22071,0 0.85449,-1.2207 2.31933,-0.48828 4.02832,0 0.48829,-0.73243 1.95312,0.36622 0.85449,-0.8545 0.73242,0.48828 0.8545,-1.2207 2.80761,0 5.24903,-1.95312 11.23047,-1.70899 z"
         style=""
         id="path3103" />
    </g>
  </g>
</svg>
